<svg xmlns="http://www.w3.org/2000/svg" width="1080" height="1080" version="1.0" viewBox="0 0 11250 11250" shape-rendering="geometricPrecision" text-rendering="geometricPrecision" image-rendering="optimizeQuality" fill-rule="evenodd" clip-rule="evenodd"><defs><clipPath id="prefix__id0"><path d="M5625 130.21c3034.69 0 5494.79 2460.1 5494.79 5494.79S8659.69 11119.79 5625 11119.79 130.21 8659.69 130.21 5625 2590.31 130.21 5625 130.21z"/></clipPath><style>.prefix__fil2{fill:#fff}</style></defs><g id="prefix__Layer_x0020_1"><path d="M5625 130.21c3034.69 0 5494.79 2460.1 5494.79 5494.79S8659.69 11119.79 5625 11119.79 130.21 8659.69 130.21 5625 2590.31 130.21 5625 130.21z" fill="#308280"/><g clip-path="url(#prefix__id0)"><g id="prefix___2777665204192"><path fill="#1fb4b8" d="M130.21 130.21h10989.58V5625H130.21z"/><path class="prefix__fil2" d="M8227.97 6027.68L4857.06 8105.76v-2.73c-68.85 34.78-146.68 54.4-229.09 54.4-280.99 0-508.78-227.79-508.78-508.77V3601.34c0-280.98 227.79-508.77 508.78-508.77 82.41 0 160.24 19.62 229.09 54.4v-2.74l3379.53 2083.39c40.99 32.94 77.54 72.84 107.78 119.33 145.84 224.24 92.31 520.61-116.39 680.72z"/></g></g><path d="M5625 130.21c3034.69 0 5494.79 2460.1 5494.79 5494.79S8659.69 11119.79 5625 11119.79 130.21 8659.69 130.21 5625 2590.31 130.21 5625 130.21z" fill="none"/><path class="prefix__fil2" d="M5625 0c3063.07 0 5554.13 2448.35 5623.35 5494.79h1.17v91.97c.11 12.76.48 25.46.48 38.24 0 12.78-.4 25.48-.48 38.24v91.97h-1.17C11179.13 8801.65 8688.07 11250 5625 11250S70.87 8801.65 1.65 5755.21H.48v-92.28C.37 5650.27 0 5637.68 0 5625s.37-25.27.48-37.93v-92.28h1.17C70.87 2448.35 2561.93 0 5625 0zM262.01 5494.79h10725.98c-34.06-1429.69-627.37-2720.89-1569.63-3663.15C8447.58 860.86 7106.42 260.41 5625.01 260.41c-1481.41 0-2822.57 600.44-3793.35 1571.23C889.4 2773.9 296.08 4065.1 262.03 5494.79zm10725.98 260.42H262.01C296.07 7184.9 889.38 8476.1 1831.64 9418.36c970.78 970.78 2311.94 1571.23 3793.35 1571.23 1481.41 0 2822.57-600.44 3793.35-1571.23 942.26-942.26 1535.58-2233.46 1569.63-3663.15z"/></g></svg>